<svg width="87" height="105" viewBox="0 0 87 105" fill="none" xmlns="http://www.w3.org/2000/svg">
<g clip-path="url(#clip0_14_16)">
<path d="M14.261 105C14.261 105 0.5 88.6666 0.5 64.1602C0.5 39.6537 15.4014 11.6666 41.7831 11.6666L32.609 26.8268C32.609 26.8268 6.22742 43.1602 6.22742 69.9999C6.22742 96.8397 14.2483 105 14.2483 105H14.261Z" fill="url(#paint0_linear_14_16)"/>
<path d="M16.5545 57.1602C7.49455 57.1602 1.65309 52.4936 1.65309 42.4899C1.65309 37.617 2.94556 32.7569 5.25173 28.2321C2.23597 34.0718 0.5 40.3628 0.5 46.6538C0.5 60.6538 11.9675 65.3204 23.435 65.3204C40.1358 65.3204 58.053 52.9448 66.5554 37.2173C63.603 36.2118 59.2441 35.2321 53.1999 35.0258C45.5211 47.3112 29.7073 57.1602 16.5418 57.1602H16.5545Z" fill="url(#paint1_linear_14_16)"/>
<path d="M41.783 5.82689C48.6635 5.82689 57.8375 8.16022 57.8375 20.4972C57.8375 21.954 57.6855 23.4107 57.394 24.8545C59.0286 24.6225 60.7139 24.4935 62.4245 24.4935C65.5924 24.4935 68.4434 24.7256 70.9776 25.0865C71.3831 22.9595 71.5985 20.8066 71.5985 18.6667C71.5985 5.83978 60.131 0 49.8166 0C31.76 0 14.6538 11.5893 6.13873 26.6077C12.8799 14.8766 26.4888 5.82689 41.783 5.82689Z" fill="url(#paint2_linear_14_16)"/>
<path d="M86.5 30.3333C86.5 30.3333 81.3174 26.5691 70.9776 25.0865C70.1793 29.2505 68.6588 33.337 66.5554 37.2173C70.078 38.4162 71.5985 39.6538 71.5985 39.6538L86.5 30.3204V30.3333Z" fill="url(#paint3_linear_14_16)"/>
<path d="M25.7285 43.1602C25.7285 43.1602 36.0429 35 50.957 35C51.73 35 52.4776 35.0129 53.2125 35.0387C55.2526 31.7772 56.7098 28.3352 57.4067 24.8674C39.2488 27.4715 25.7412 43.1731 25.7412 43.1731L25.7285 43.1602Z" fill="url(#paint4_linear_14_16)"/>
<path d="M62.4245 24.4935C60.7139 24.4935 59.0413 24.6224 57.394 24.8545C56.7098 28.3223 55.2399 31.7643 53.1998 35.0258C59.244 35.2191 63.603 36.2118 66.5554 37.2173C68.6588 33.337 70.1793 29.2375 70.9776 25.0865C68.4434 24.7256 65.5923 24.4935 62.4245 24.4935Z" fill="url(#paint5_linear_14_16)"/>
</g>
<defs>
<linearGradient id="paint0_linear_14_16" x1="4.03529" y1="93.1528" x2="25.8909" y2="19.436" gradientUnits="userSpaceOnUse">
<stop stop-color="#E95519"/>
<stop offset="1" stop-color="#FCCF00"/>
</linearGradient>
<linearGradient id="paint1_linear_14_16" x1="11.1946" y1="56.825" x2="54.5697" y2="19.6129" gradientUnits="userSpaceOnUse">
<stop stop-color="#E95519"/>
<stop offset="1" stop-color="#FCCF00"/>
</linearGradient>
<linearGradient id="paint2_linear_14_16" x1="7.03839" y1="51.9779" x2="50.4135" y2="14.7658" gradientUnits="userSpaceOnUse">
<stop stop-color="#E95519"/>
<stop offset="1" stop-color="#FCCF00"/>
</linearGradient>
<linearGradient id="paint3_linear_14_16" x1="24.6007" y1="90.1491" x2="76.4891" y2="32.3284" gradientUnits="userSpaceOnUse">
<stop stop-color="#E95519"/>
<stop offset="1" stop-color="#FCCF00"/>
</linearGradient>
<linearGradient id="paint4_linear_14_16" x1="8.06474" y1="75.3112" x2="59.9529" y2="17.5034" gradientUnits="userSpaceOnUse">
<stop stop-color="#E95519"/>
<stop offset="1" stop-color="#FCCF00"/>
</linearGradient>
<linearGradient id="paint5_linear_14_16" x1="88.7428" y1="17.1068" x2="47.461" y2="37.8782" gradientUnits="userSpaceOnUse">
<stop stop-color="#E95519"/>
<stop offset="1" stop-color="#FCCF00"/>
</linearGradient>
<clipPath id="clip0_14_16">
<rect width="86" height="105" fill="white" transform="translate(0.5)"/>
</clipPath>
</defs>
</svg>
