<svg width="130" height="57" viewBox="0 0 130 57" fill="none" xmlns="http://www.w3.org/2000/svg">
<g clip-path="url(#clip0_2019_2809)">
<rect width="130" height="56" transform="translate(0 0.0581055)" fill="white"/>
<path d="M7.46383 56.058C7.46383 56.058 0 47.3458 0 34.2835C0 21.2212 8.08681 6.27759 22.3974 6.27759L17.4196 14.3666C17.4196 14.3666 3.10894 23.0788 3.10894 37.3933C3.10894 51.7079 7.46383 56.058 7.46383 56.058Z" fill="url(#paint0_linear_2019_2809)"/>
<path d="M8.70978 30.5508C3.79125 30.5508 0.622975 28.0642 0.622975 22.7288C0.622975 20.1354 1.32308 17.536 2.57496 15.1265C0.937429 18.2363 0 21.5894 0 24.9484C0 32.4143 6.21788 34.9069 12.4417 34.9069C21.5015 34.9069 31.2199 28.3075 35.8359 19.9158C34.234 19.3757 31.8726 18.8535 28.5916 18.7466C24.4265 25.2986 15.8473 30.5508 8.70978 30.5508Z" fill="url(#paint1_linear_2019_2809)"/>
<path d="M22.3975 3.1679C26.1295 3.1679 31.1073 4.41419 31.1073 10.9899C31.1073 11.7673 31.0243 12.5448 30.87 13.3163C31.76 13.1916 32.6677 13.1204 33.5992 13.1204C35.3139 13.1204 36.8624 13.2391 38.2389 13.435C38.4584 12.3014 38.5771 11.156 38.5771 10.0106C38.5712 3.1679 32.3473 0.0581055 26.7465 0.0581055C16.9569 0.0581055 7.68348 6.24208 3.05566 14.248C6.71638 7.99282 14.0971 3.1679 22.3975 3.1679Z" fill="url(#paint2_linear_2019_2809)"/>
<path d="M46.6579 16.2359C46.6579 16.2359 43.8515 14.23 38.2329 13.4407C37.7998 15.6603 36.9751 17.8383 35.8359 19.9155C37.7464 20.5564 38.5711 21.2152 38.5711 21.2152L46.6579 16.2359Z" fill="url(#paint3_linear_2019_2809)"/>
<path d="M13.6877 23.0788C13.6877 23.0788 19.2886 18.7227 27.3754 18.7227C27.7966 18.7227 28.2001 18.7286 28.5976 18.7405C29.7012 17.0016 30.4962 15.1678 30.87 13.3162C21.0151 14.7049 13.6877 23.0788 13.6877 23.0788Z" fill="url(#paint4_linear_2019_2809)"/>
<path d="M33.5932 13.1265C32.6676 13.1265 31.7539 13.1977 30.8639 13.3223C30.4901 15.1739 29.6951 17.0078 28.5916 18.7466C31.8666 18.8535 34.2339 19.3757 35.8359 19.9158C36.975 17.8446 37.8056 15.6606 38.2328 13.441C36.8564 13.2452 35.3078 13.1265 33.5932 13.1265Z" fill="url(#paint5_linear_2019_2809)"/>
<path d="M54.9048 42.349H52.8816V29.9395H57.2305C57.8654 29.9395 58.4468 30.0166 58.9808 30.165C59.5089 30.3133 59.9657 30.5448 60.3514 30.8593C60.737 31.1739 61.0337 31.5656 61.2473 32.0463C61.4608 32.527 61.5676 33.1027 61.5676 33.7673C61.5676 34.3668 61.4608 34.9068 61.2473 35.3816C61.0337 35.8564 60.737 36.254 60.3514 36.5745C59.9657 36.9009 59.5089 37.1442 58.9808 37.3104C58.4528 37.4765 57.8713 37.5596 57.2305 37.5596H54.9048V42.343V42.349ZM54.9048 35.7614H57.2305C58.0078 35.7614 58.5774 35.5774 58.9274 35.2154C59.2775 34.8534 59.4555 34.3668 59.4555 33.7495C59.4555 33.0789 59.2775 32.5804 58.9215 32.2421C58.5655 31.9098 58.0019 31.7377 57.2305 31.7377H54.9048V35.7495V35.7614Z" fill="#19191A"/>
<path d="M71.3632 42.3668H69.1738L68.0228 38.5685H64.0239L62.8729 42.3668H60.6836L64.813 29.9395H67.2871L71.3691 42.3668H71.3632ZM64.5579 36.7644H67.4829L66.0293 31.9454L64.5579 36.7644Z" fill="#19191A"/>
<path d="M90.8297 31.7436H87.3173V42.349H85.2941V31.7436H81.7817V29.9395H90.8297V31.7436Z" fill="#19191A"/>
<path d="M95.0125 29.9395L99.0945 39.4231V29.9395H101.118V42.349H98.6436L93.9624 31.9098V42.349H91.9392V29.9395H95.0185H95.0125Z" fill="#19191A"/>
<path d="M109.881 42.349H102.364V29.9395H109.733V31.7436H104.405V35.1145H109.359V36.9365H104.405V40.527H109.881V42.349Z" fill="#19191A"/>
<path d="M113.025 42.349H111.002V29.9395H115.351C115.986 29.9395 116.567 30.0166 117.095 30.165C117.624 30.3133 118.08 30.5448 118.466 30.8593C118.852 31.1739 119.148 31.5656 119.362 32.0463C119.576 32.527 119.682 33.1027 119.682 33.7673C119.682 34.3668 119.576 34.9068 119.362 35.3816C119.148 35.8564 118.852 36.254 118.466 36.5745C118.08 36.9009 117.624 37.1442 117.095 37.3104C116.567 37.4765 115.986 37.5596 115.351 37.5596H113.025V42.343V42.349ZM113.025 35.7614H115.351C116.128 35.7614 116.698 35.5774 117.048 35.2154C117.398 34.8534 117.576 34.3668 117.576 33.7495C117.576 33.0789 117.398 32.5804 117.042 32.2421C116.686 31.9098 116.122 31.7377 115.351 31.7377H113.025V35.7495V35.7614Z" fill="#19191A"/>
<path fill-rule="evenodd" clip-rule="evenodd" d="M113.025 37.5655C113.025 37.5655 119.682 37.0076 119.682 42.3489H117.576C117.576 42.3489 118.217 37.5655 113.025 37.5655Z" fill="url(#paint6_linear_2019_2809)"/>
<path d="M121.344 39.3578C122.133 39.7317 122.803 40.0047 123.367 40.1886C123.924 40.3667 124.435 40.4794 124.897 40.5269C125.259 40.5625 125.574 40.5328 125.853 40.4557C126.132 40.3785 126.357 40.2539 126.553 40.0996C126.749 39.9453 126.891 39.7673 126.986 39.5596C127.081 39.3518 127.134 39.1382 127.134 38.9186C127.134 38.337 126.921 37.9038 126.499 37.613C126.078 37.3222 125.503 37.067 124.785 36.8474C124.085 36.6397 123.503 36.3963 123.052 36.1174C122.601 35.8385 122.245 35.5358 121.99 35.2035C121.735 34.8711 121.569 34.5269 121.48 34.153C121.391 33.7791 121.367 33.3993 121.397 33.0017C121.433 32.5507 121.539 32.1412 121.717 31.7673C121.895 31.3934 122.15 31.0729 122.471 30.7999C122.791 30.5269 123.183 30.3133 123.628 30.1649C124.079 30.0165 124.589 29.9453 125.159 29.9453C126.452 29.9453 127.585 30.242 128.558 30.8355L128.084 32.3311C127.591 32.1649 127.152 32.0284 126.778 31.9097C126.399 31.7969 125.989 31.7257 125.538 31.702C125.164 31.6901 124.844 31.7257 124.577 31.8029C124.31 31.88 124.085 31.9809 123.901 32.1174C123.723 32.248 123.586 32.4023 123.497 32.5803C123.408 32.7584 123.367 32.9305 123.367 33.1085C123.355 33.3934 123.396 33.6367 123.491 33.8385C123.586 34.0403 123.741 34.2242 123.966 34.3904C124.191 34.5566 124.482 34.7109 124.844 34.8652C125.206 35.0195 125.651 35.1857 126.173 35.3578C126.577 35.5002 126.956 35.6723 127.318 35.8682C127.674 36.064 127.983 36.3014 128.244 36.5685C128.505 36.8355 128.712 37.1501 128.867 37.5061C129.021 37.8622 129.104 38.2717 129.116 38.7287C129.128 39.3103 129.039 39.8266 128.843 40.2836C128.647 40.7406 128.374 41.1204 128.012 41.4349C127.65 41.7495 127.217 41.9809 126.713 42.1352C126.209 42.2895 125.651 42.3548 125.04 42.3311C124.369 42.3073 123.693 42.1886 122.999 41.975C122.311 41.7613 121.557 41.4349 120.75 40.9958L121.344 39.3696V39.3578Z" fill="#19191A"/>
<path d="M74.4663 42.349H72.4431V29.9395H76.7921C77.4269 29.9395 78.0084 30.0166 78.5364 30.165C79.0644 30.3133 79.5213 30.5448 79.9069 30.8593C80.2926 31.1739 80.5893 31.5656 80.8028 32.0463C81.0164 32.527 81.1232 33.1027 81.1232 33.7673C81.1232 34.3668 81.0164 34.9068 80.8028 35.3816C80.5893 35.8564 80.2926 36.254 79.9069 36.5745C79.5213 36.9009 79.0644 37.1442 78.5364 37.3104C78.0084 37.4765 77.4269 37.5596 76.7921 37.5596H74.4663V42.343V42.349ZM74.4663 35.7614H76.7921C77.5693 35.7614 78.1389 35.5774 78.4889 35.2154C78.839 34.8534 79.017 34.3668 79.017 33.7495C79.017 33.0789 78.839 32.5804 78.483 32.2421C78.127 31.9098 77.5634 31.7377 76.7921 31.7377H74.4663V35.7495V35.7614Z" fill="#19191A"/>
<path fill-rule="evenodd" clip-rule="evenodd" d="M74.4663 37.5655C74.4663 37.5655 81.1232 37.0076 81.1232 42.3489H79.017C79.017 42.3489 79.6578 37.5655 74.4663 37.5655Z" fill="url(#paint7_linear_2019_2809)"/>
<path d="M54.9048 26.1824H52.8757V13.7551H57.2306C57.8655 13.7551 58.4528 13.8323 58.9809 13.9806C59.5089 14.129 59.9658 14.3605 60.3514 14.675C60.7371 14.9895 61.0337 15.3872 61.2473 15.862C61.4609 16.3427 61.5677 16.9183 61.5677 17.589C61.5677 18.1943 61.4609 18.7284 61.2473 19.2032C61.0337 19.678 60.7371 20.0756 60.3514 20.402C59.9658 20.7284 59.5089 20.9717 58.9809 21.1379C58.4528 21.3041 57.8655 21.3872 57.2306 21.3872H54.9048V26.1765V26.1824ZM54.9048 19.583H57.2306C58.0138 19.583 58.5774 19.399 58.9275 19.037C59.2775 18.675 59.4555 18.1884 59.4555 17.5712C59.4555 16.9005 59.2775 16.3961 58.9216 16.0637C58.5656 15.7314 58.0019 15.5593 57.2306 15.5593H54.9048V19.5771V19.583Z" fill="#19191A"/>
<path d="M126.078 26.1827H124.049V21.1382L120.08 13.7495H122.34L125.052 19.0908L127.68 13.7495H129.988L126.072 21.1026V26.1768L126.078 26.1827Z" fill="#19191A"/>
<path d="M100.429 26.1827H92.9004V13.7554H100.275V15.5595H94.9414V18.9364H99.9074V20.7583H94.9414V24.3548H100.429V26.1767V26.1827Z" fill="#19191A"/>
<path d="M103.283 26.1768H101.254V13.7495H105.609C106.244 13.7495 106.831 13.8267 107.359 13.975C107.887 14.1234 108.35 14.3549 108.73 14.6694C109.115 14.9839 109.412 15.3816 109.626 15.8563C109.839 16.337 109.946 16.9127 109.946 17.5833C109.946 18.1887 109.839 18.7228 109.626 19.1976C109.412 19.6724 109.115 20.07 108.73 20.3964C108.344 20.7228 107.887 20.9661 107.359 21.1323C106.831 21.2985 106.244 21.3816 105.609 21.3816H103.283V26.1709V26.1768ZM103.283 19.5833H105.609C106.392 19.5833 106.956 19.3994 107.306 19.0373C107.656 18.6753 107.834 18.1887 107.834 17.5715C107.834 16.9008 107.656 16.3964 107.3 16.0641C106.944 15.7317 106.38 15.5596 105.609 15.5596H103.283V19.5774V19.5833Z" fill="#19191A"/>
<path fill-rule="evenodd" clip-rule="evenodd" d="M103.283 21.3875C103.283 21.3875 109.946 20.8296 109.946 26.1768H107.834C107.834 26.1768 108.481 21.3875 103.277 21.3875H103.283Z" fill="url(#paint8_linear_2019_2809)"/>
<path d="M85.4068 26.1768H83.3777V13.7495H87.7326C88.3674 13.7495 88.9548 13.8267 89.4828 13.975C90.0109 14.1234 90.4737 14.3549 90.8534 14.6694C91.239 14.9839 91.5357 15.3816 91.7493 15.8563C91.9629 16.337 92.0697 16.9127 92.0697 17.5833C92.0697 18.1887 91.9629 18.7228 91.7493 19.1976C91.5357 19.6724 91.239 20.07 90.8534 20.3964C90.4677 20.7228 90.0109 20.9661 89.4828 21.1323C88.9548 21.2985 88.3674 21.3816 87.7326 21.3816H85.4068V26.1709V26.1768ZM85.4068 19.5833H87.7326C88.5157 19.5833 89.0794 19.3994 89.4294 19.0373C89.7795 18.6753 89.9575 18.1887 89.9575 17.5715C89.9575 16.9008 89.7795 16.3964 89.4235 16.0641C89.0675 15.7317 88.5039 15.5596 87.7326 15.5596H85.4068V19.5774V19.5833Z" fill="#19191A"/>
<path d="M64.4276 26.1768H62.3984V13.7495H66.7533C67.3882 13.7495 67.9755 13.8267 68.5036 13.975C69.0316 14.1234 69.4944 14.3549 69.8741 14.6694C70.2598 14.9839 70.5564 15.3816 70.77 15.8563C70.9836 16.337 71.0904 16.9127 71.0904 17.5833C71.0904 18.1887 70.9836 18.7228 70.77 19.1976C70.5564 19.6724 70.2598 20.07 69.8741 20.3964C69.4885 20.7228 69.0316 20.9661 68.5036 21.1323C67.9755 21.2985 67.3882 21.3816 66.7533 21.3816H64.4276V26.1709V26.1768ZM64.4276 19.5833H66.7533C67.5365 19.5833 68.1001 19.3994 68.4502 19.0373C68.8002 18.6753 68.9782 18.1887 68.9782 17.5715C68.9782 16.9008 68.8002 16.3964 68.4443 16.0641C68.0883 15.7317 67.5246 15.5596 66.7533 15.5596H64.4276V19.5774V19.5833Z" fill="#19191A"/>
<path fill-rule="evenodd" clip-rule="evenodd" d="M64.4276 21.3875C64.4276 21.3875 71.0904 20.8296 71.0904 26.1768H68.9782C68.9782 26.1768 69.625 21.3875 64.4216 21.3875H64.4276Z" fill="url(#paint9_linear_2019_2809)"/>
<path d="M119.255 15.5596H115.737V26.1768H113.708V15.5596H110.189V13.7495H119.249V15.5596H119.255Z" fill="#19191A"/>
<path d="M71.6719 19.8266C71.6719 18.9601 71.7905 18.1589 72.0279 17.4171C72.2652 16.6753 72.6093 16.0343 73.0721 15.4942C73.5349 14.9482 74.0985 14.5269 74.7749 14.2183C75.4513 13.9097 76.2285 13.7554 77.1007 13.7554C77.9728 13.7554 78.7382 13.9097 79.4205 14.2183C80.1028 14.5269 80.6724 14.9482 81.1352 15.4942C81.5979 16.0402 81.948 16.6812 82.1912 17.4171C82.4345 18.1589 82.5532 18.9601 82.5532 19.8266C82.5532 20.7702 82.4404 21.6307 82.209 22.4082C81.9777 23.1856 81.6335 23.8563 81.1826 24.4141C80.7258 24.972 80.1621 25.4112 79.4798 25.7198C78.7975 26.0343 78.0084 26.1886 77.1125 26.1886C76.2166 26.1886 75.4394 26.0343 74.7571 25.7198C74.0748 25.4052 73.5111 24.972 73.0543 24.4141C72.5974 23.8563 72.2533 23.1856 72.0279 22.4082C71.7965 21.6307 71.6837 20.7702 71.6837 19.8266H71.6719ZM73.6298 19.8266C73.6298 20.4735 73.701 21.0788 73.8493 21.6367C73.9976 22.1945 74.2112 22.6812 74.502 23.0907C74.7867 23.5002 75.1487 23.8266 75.5818 24.064C76.0149 24.3014 76.5251 24.4201 77.1066 24.4201C77.688 24.4201 78.1805 24.3014 78.6195 24.064C79.0586 23.8266 79.4205 23.5061 79.7112 23.0907C80.0019 22.6812 80.2215 22.1945 80.3698 21.6367C80.5181 21.0788 80.5893 20.4735 80.5893 19.8266C80.5893 19.245 80.5122 18.6931 80.3579 18.1708C80.2037 17.6485 79.9782 17.1916 79.6816 16.8058C79.3849 16.4141 79.023 16.1055 78.5899 15.8741C78.1567 15.6426 77.6584 15.5299 77.1007 15.5299C76.5429 15.5299 76.0446 15.6367 75.6114 15.8503C75.1783 16.064 74.8164 16.3607 74.5257 16.7405C74.235 17.1204 74.0154 17.5714 73.8612 18.0996C73.7069 18.6278 73.6298 19.2034 73.6298 19.8266Z" fill="#19191A"/>
</g>
<defs>
<linearGradient id="paint0_linear_2019_2809" x1="1.91639" y1="49.7435" x2="13.4087" y2="10.3208" gradientUnits="userSpaceOnUse">
<stop stop-color="#E95006"/>
<stop offset="1" stop-color="#F8D100"/>
</linearGradient>
<linearGradient id="paint1_linear_2019_2809" x1="5.80257" y1="30.3668" x2="28.9887" y2="10.1357" gradientUnits="userSpaceOnUse">
<stop stop-color="#E95006"/>
<stop offset="1" stop-color="#F8D100"/>
</linearGradient>
<linearGradient id="paint2_linear_2019_2809" x1="3.54218" y1="27.7792" x2="26.7342" y2="7.54808" gradientUnits="userSpaceOnUse">
<stop stop-color="#E95006"/>
<stop offset="1" stop-color="#F8D100"/>
</linearGradient>
<linearGradient id="paint3_linear_2019_2809" x1="13.0766" y1="48.141" x2="40.6918" y2="16.8369" gradientUnits="userSpaceOnUse">
<stop stop-color="#E95006"/>
<stop offset="1" stop-color="#F8D100"/>
</linearGradient>
<linearGradient id="paint4_linear_2019_2809" x1="4.1058" y1="40.2242" x2="31.7269" y2="8.92604" gradientUnits="userSpaceOnUse">
<stop stop-color="#E95006"/>
<stop offset="1" stop-color="#F8D100"/>
</linearGradient>
<linearGradient id="paint5_linear_2019_2809" x1="47.8682" y1="9.18581" x2="25.6284" y2="20.5637" gradientUnits="userSpaceOnUse">
<stop stop-color="#E95006"/>
<stop offset="1" stop-color="#F8D100"/>
</linearGradient>
<linearGradient id="paint6_linear_2019_2809" x1="113.025" y1="39.9512" x2="119.676" y2="39.9512" gradientUnits="userSpaceOnUse">
<stop stop-color="#E95006"/>
<stop offset="1" stop-color="#F8D100"/>
</linearGradient>
<linearGradient id="paint7_linear_2019_2809" x1="74.4663" y1="39.9512" x2="81.1173" y2="39.9512" gradientUnits="userSpaceOnUse">
<stop stop-color="#E95006"/>
<stop offset="1" stop-color="#F8D100"/>
</linearGradient>
<linearGradient id="paint8_linear_2019_2809" x1="103.283" y1="23.7732" x2="109.946" y2="23.7732" gradientUnits="userSpaceOnUse">
<stop stop-color="#E95006"/>
<stop offset="1" stop-color="#F8D100"/>
</linearGradient>
<linearGradient id="paint9_linear_2019_2809" x1="64.4276" y1="23.7732" x2="71.0904" y2="23.7732" gradientUnits="userSpaceOnUse">
<stop stop-color="#E95006"/>
<stop offset="1" stop-color="#F8D100"/>
</linearGradient>
<clipPath id="clip0_2019_2809">
<rect width="130" height="56" fill="white" transform="translate(0 0.0581055)"/>
</clipPath>
</defs>
</svg>
