<svg width="23" height="23" viewBox="0 0 23 23" fill="none" xmlns="http://www.w3.org/2000/svg">
<path d="M19.4072 20.2319H3.85162C2.62432 20.2319 1.62939 19.2491 1.62939 18.0365V8.1572C1.62939 6.94471 2.62432 5.96179 3.85162 5.96179H19.4072C20.6345 5.96179 21.6294 6.94471 21.6294 8.1572V18.0365C21.6294 19.2491 20.6345 20.2319 19.4072 20.2319Z" stroke="#E95C20" stroke-width="2"/>
<path d="M16.6298 13.6457C16.323 13.6457 16.0742 13.3999 16.0742 13.0968C16.0742 12.7937 16.323 12.548 16.6298 12.548C16.9366 12.548 17.1853 12.7937 17.1853 13.0968C17.1853 13.3999 16.9366 13.6457 16.6298 13.6457Z" fill="#E95C20" stroke="#E95C20" stroke-width="2" stroke-linecap="round" stroke-linejoin="round"/>
<path d="M18.2961 5.96179V4.42854C18.2961 2.98609 16.9121 1.9356 15.5013 2.30726L3.27903 5.5272C2.30625 5.78348 1.62939 6.65385 1.62939 7.64848V8.1572" stroke="#E95C20" stroke-width="2"/>
</svg>
