<svg width="23" height="23" viewBox="0 0 23 23" fill="none" xmlns="http://www.w3.org/2000/svg">
<path d="M11.6294 21.2319C17.1522 21.2319 21.6294 16.7547 21.6294 11.2319C21.6294 5.70908 17.1522 1.23193 11.6294 1.23193C6.10654 1.23193 1.62939 5.70908 1.62939 11.2319C1.62939 16.7547 6.10654 21.2319 11.6294 21.2319Z" stroke="#E95C20" stroke-width="2" stroke-linecap="round" stroke-linejoin="round"/>
<path d="M14.6294 7.73193C13.9444 7.04694 12.7381 6.57048 11.6294 6.54065M11.6294 6.54065C10.3103 6.50515 9.12939 7.10191 9.12939 8.73194C9.12939 11.7319 14.6294 10.2319 14.6294 13.2319C14.6294 14.9429 13.1656 15.6781 11.6294 15.6229M11.6294 6.54065V4.73193M8.62939 14.2319C9.27387 15.0912 10.4722 15.5813 11.6294 15.6229M11.6294 15.6229V17.7319" stroke="#E95C20" stroke-width="2" stroke-linecap="round" stroke-linejoin="round"/>
</svg>
